<svg xmlns="http://www.w3.org/2000/svg" width="1em" height="1em" viewBox="0 0 24 24"><g fill="currentColor" fill-rule="evenodd" clip-rule="evenodd"><path d="M5 14.997a.75.75 0 0 1 .75.75V18c0 .138.112.25.25.25h12a.25.25 0 0 0 .25-.25v-2.253a.75.75 0 0 1 1.5 0V18A1.75 1.75 0 0 1 18 19.75H6A1.75 1.75 0 0 1 4.25 18v-2.253a.75.75 0 0 1 .75-.75M12.202 4.25a.75.75 0 0 1 .75.75v8.086a.75.75 0 0 1-1.5 0V5a.75.75 0 0 1 .75-.75"/><path d="M8.322 10.626a.75.75 0 0 1 1.06-.013l2.82 2.755l2.82-2.755a.75.75 0 1 1 1.048 1.073l-3.344 3.267a.75.75 0 0 1-1.048 0l-3.344-3.267a.75.75 0 0 1-.012-1.06"/></g></svg>